<?xml version="1.0" encoding="utf-8"?><!-- Uploaded to: SVG Repo, www.svgrepo.com, Generator: SVG Repo Mixer Tools -->
<svg version="1.1" id="Uploaded to svgrepo.com" xmlns="http://www.w3.org/2000/svg" xmlns:xlink="http://www.w3.org/1999/xlink" 
	 width="800px" height="800px" viewBox="0 0 32 32" xml:space="preserve">
<style type="text/css">
	.feather_een{fill:#0B1719;}
</style>
<path class="feather_een" d="M16,1C9.373,1,5,6.373,5,13c0,5.773,4.761,10.185,6.43,11.555c0.213,0.175,0.461,0.294,0.723,0.366
	l0.568,3.408C12.882,29.293,13.717,30,14.694,30L15,30c0,0.552,0.448,1,1,1h0c0.552,0,1-0.448,1-1l0.306,0
	c0.978,0,1.812-0.707,1.973-1.671l0.568-3.408c0.262-0.072,0.51-0.191,0.723-0.366C22.239,23.185,27,18.773,27,13
	C27,6.373,22.627,1,16,1z M17.306,29h-2.612c-0.489,0-0.906-0.353-0.986-0.836L13.18,25h5.639l-0.527,3.164
	C18.212,28.646,17.795,29,17.306,29z M19.936,23.782C19.764,23.923,19.543,24,19.312,24h-6.624c-0.231,0-0.452-0.077-0.623-0.218
	C10.642,22.615,6,18.387,6,13C6,6.626,10.206,2,16,2s10,4.626,10,11C26,18.387,21.358,22.615,19.936,23.782z M19,17
	c-0.415,0-0.8,0.126-1.12,0.343C17.608,16.563,16.873,16,16,16s-1.608,0.563-1.88,1.343C13.8,17.126,13.415,17,13,17
	c-1.105,0-2,0.895-2,2c0,1.105,0.895,2,2,2c0.366,0,0.705-0.106,1-0.277V24h1v-4.278C15.295,19.894,15.634,20,16,20
	s0.705-0.106,1-0.277V24h1v-3.277C18.295,20.894,18.634,21,19,21c1.105,0,2-0.895,2-2C21,17.895,20.105,17,19,17z M13,20
	c-0.551,0-1-0.449-1-1s0.449-1,1-1s1,0.449,1,1S13.551,20,13,20z M16,19c-0.551,0-1-0.449-1-1s0.449-1,1-1s1,0.449,1,1
	S16.552,19,16,19z M19,20c-0.551,0-1-0.449-1-1s0.449-1,1-1c0.551,0,1,0.449,1,1S19.552,20,19,20z"/>
</svg>